<?xml version="1.0" encoding="UTF-8"?>
<svg width="1957px" height="248px" viewBox="0 0 1957 248" version="1.1" xmlns="http://www.w3.org/2000/svg" xmlns:xlink="http://www.w3.org/1999/xlink">
    <title>Rectangle</title>
    <defs>
        <linearGradient x1="34.8394439%" y1="48.8167508%" x2="79.2076772%" y2="51.4157055%" id="linearGradient-1">
            <stop stop-color="#FFFFFF" stop-opacity="0.4" offset="0%"></stop>
            <stop stop-color="#FFFFFF" stop-opacity="0.2" offset="100%"></stop>
        </linearGradient>
        <path d="M43,52.0034356 C369.166667,17.3344785 695.333333,0 1021.5,0 C1347.66667,0 1673.83333,17.3344785 2000,52.0034356 L2069.44851,324.141921 C2076.54983,351.968906 2059.74836,380.283893 2031.92138,387.385214 C2027.71945,388.457527 2023.39989,389 2019.0633,389 L59.0566841,389 C30.3378771,389 7.05668413,365.718807 7.05668413,337 C7.05668413,334.799454 7.19636862,332.601128 7.47489504,330.41828 L43,52.0034356 L43,52.0034356 Z" id="path-2"></path>
        <filter x="-1.5%" y="-9.6%" width="102.5%" height="119.3%" filterUnits="objectBoundingBox" id="filter-3">
            <feOffset dx="0" dy="0" in="SourceAlpha" result="shadowOffsetOuter1"></feOffset>
            <feGaussianBlur stdDeviation="12.5" in="shadowOffsetOuter1" result="shadowBlurOuter1"></feGaussianBlur>
            <feColorMatrix values="0 0 0 0 5.73679768e-05   0 0 0 0 0.00814402248   0 0 0 0 0.097118433  0 0 0 0.0562172203 0" type="matrix" in="shadowBlurOuter1"></feColorMatrix>
        </filter>
    </defs>
    <g id="Page-1" stroke="none" stroke-width="1" fill="none" fill-rule="evenodd">
        <g id="Home" transform="translate(0.000000, -1155.000000)">
            <g id="Rectangle" transform="translate(-43.000000, 1180.000000)">
                <use fill="black" fill-opacity="1" filter="url(#filter-3)" xlink:href="#path-2"></use>
                <use fill="url(#linearGradient-1)" fill-rule="evenodd" xlink:href="#path-2"></use>
            </g>
        </g>
    </g>
</svg>