<?xml version="1.0" encoding="UTF-8"?>
<svg width="131px" height="131px" viewBox="0 0 131 131" version="1.1" xmlns="http://www.w3.org/2000/svg" xmlns:xlink="http://www.w3.org/1999/xlink">
    <title>facebook</title>
    <defs>
        <linearGradient x1="34.8394439%" y1="15.9744123%" x2="79.2076772%" y2="90.7101132%" id="linearGradient-1">
            <stop stop-color="#FFFFFF" stop-opacity="0.4" offset="0%"></stop>
            <stop stop-color="#FFFFFF" stop-opacity="0.2" offset="100%"></stop>
        </linearGradient>
        <path d="M81,40.5 C81,18.1300781 62.8699219,0 40.5,0 C18.1300781,0 0,18.1300781 0,40.5 C0,62.8699219 18.1300781,81 40.5,81 C40.7373047,81 40.9746094,81 41.2119141,80.9841797 L41.2119141,49.4701172 L32.5107422,49.4701172 L32.5107422,39.3292969 L41.2119141,39.3292969 L41.2119141,31.8621094 C41.2119141,23.2083984 46.4958984,18.4939453 54.2162109,18.4939453 C57.9181641,18.4939453 61.0980469,18.7628906 62.015625,18.8894531 L62.015625,27.9386719 L56.7,27.9386719 C52.5076172,27.9386719 51.6849609,29.9320312 51.6849609,32.8587891 L51.6849609,39.3134766 L61.7308594,39.3134766 L60.4177734,49.4542969 L51.6849609,49.4542969 L51.6849609,79.4337891 C68.6126953,74.5769531 81,58.9939453 81,40.5 Z" id="path-2"></path>
        <filter x="-46.3%" y="-46.3%" width="192.6%" height="192.6%" filterUnits="objectBoundingBox" id="filter-3">
            <feOffset dx="0" dy="0" in="SourceAlpha" result="shadowOffsetOuter1"></feOffset>
            <feGaussianBlur stdDeviation="12.5" in="shadowOffsetOuter1" result="shadowBlurOuter1"></feGaussianBlur>
            <feColorMatrix values="0 0 0 0 5.73679768e-05   0 0 0 0 0.00814402248   0 0 0 0 0.097118433  0 0 0 0.0562172203 0" type="matrix" in="shadowBlurOuter1"></feColorMatrix>
        </filter>
    </defs>
    <g id="Page-1" stroke="none" stroke-width="1" fill="none" fill-rule="evenodd">
        <g id="Home" transform="translate(-800.000000, -1215.000000)">
            <g id="sidefod" transform="translate(-43.000000, 1180.000000)">
                <g id="Path" transform="translate(868.000000, 60.000000)">
                    <use fill="black" fill-opacity="1" filter="url(#filter-3)" xlink:href="#path-2"></use>
                    <use fill="url(#linearGradient-1)" fill-rule="evenodd" xlink:href="#path-2"></use>
                </g>
            </g>
        </g>
    </g>
</svg>