<?xml version="1.0" encoding="UTF-8"?>
<svg width="131px" height="131px" viewBox="0 0 131 131" version="1.1" xmlns="http://www.w3.org/2000/svg" xmlns:xlink="http://www.w3.org/1999/xlink">
    <title>instagram</title>
    <defs>
        <linearGradient x1="34.8394439%" y1="15.9744123%" x2="79.2076772%" y2="90.7101132%" id="linearGradient-1">
            <stop stop-color="#FFFFFF" stop-opacity="0.4" offset="0%"></stop>
            <stop stop-color="#FFFFFF" stop-opacity="0.2" offset="100%"></stop>
        </linearGradient>
        <path d="M49,41 C49,45.4183673 45.4183673,49 41,49 C36.5816327,49 33,45.4183673 33,41 C33,36.5816327 36.5816327,33 41,33 C45.4183673,33 49,36.5816327 49,41 Z" id="path-2"></path>
        <filter x="-234.4%" y="-234.4%" width="568.8%" height="568.8%" filterUnits="objectBoundingBox" id="filter-3">
            <feOffset dx="0" dy="0" in="SourceAlpha" result="shadowOffsetOuter1"></feOffset>
            <feGaussianBlur stdDeviation="12.5" in="shadowOffsetOuter1" result="shadowBlurOuter1"></feGaussianBlur>
            <feColorMatrix values="0 0 0 0 5.73679768e-05   0 0 0 0 0.00814402248   0 0 0 0 0.097118433  0 0 0 0.0562172203 0" type="matrix" in="shadowBlurOuter1"></feColorMatrix>
        </filter>
        <path d="M59.0669821,27.3314427 C58.6956225,26.3251382 58.1031716,25.414291 57.3333549,24.6666451 C56.585709,23.8968284 55.6754776,23.3043775 54.6685573,22.9330179 C53.8519359,22.6158534 52.625156,22.2383353 50.36559,22.1354877 C47.9212681,22.0240183 47.1884025,22 41.0003079,22 C34.8115975,22 34.0787319,22.0234025 31.6350258,22.1348719 C29.3754599,22.2383353 28.1480641,22.6158534 27.3320585,22.9330179 C26.3251382,23.3043775 25.414291,23.8968284 24.6672609,24.6666451 C23.8974442,25.414291 23.3049933,26.3245224 22.9330179,27.3314427 C22.6158534,28.1480641 22.2383353,29.3754599 22.1354877,31.6350258 C22.0240183,34.0787319 22,34.8115975 22,41.0003079 C22,47.1884025 22.0240183,47.9212681 22.1354877,50.36559 C22.2383353,52.625156 22.6158534,53.8519359 22.9330179,54.6685575 C23.3049933,55.6754778 23.8968284,56.585709 24.6666451,57.3333549 C25.414291,58.1031716 26.3245222,58.6956227 27.3314425,59.0669821 C28.1480641,59.3847625 29.3754599,59.7622805 31.6350258,59.8651281 C34.0787319,59.9765977 34.8109817,60 40.9996921,60 C47.1890183,60 47.9218839,59.9765977 50.3649742,59.8651281 C52.6245401,59.7622805 53.8519359,59.3847625 54.6685573,59.0669821 C56.6897881,58.2873118 58.2873118,56.6897881 59.0669821,54.6685575 C59.3841466,53.8519359 59.7616647,52.625156 59.8651281,50.36559 C59.9765975,47.9212681 60,47.1884025 60,41.0003079 C60,34.8115975 59.9765975,34.0787319 59.8651281,31.6350258 C59.7622805,29.3754599 59.3847625,28.1480641 59.0669821,27.3314427 L59.0669821,27.3314427 Z M41.0003079,52.9004424 C34.427305,52.9004424 29.0989417,47.572695 29.0989417,40.9996921 C29.0989417,34.4266892 34.427305,29.0989417 41.0003079,29.0989417 C47.572695,29.0989417 52.9010583,34.4266892 52.9010583,40.9996921 C52.9010583,47.572695 47.572695,52.9004424 41.0003079,52.9004424 Z M53.3715702,31.4096235 C51.8356319,31.4096235 50.5903765,30.1643681 50.5903765,28.6284298 C50.5903765,27.0924914 51.8356319,25.847236 53.3715702,25.847236 C54.9075086,25.847236 56.152764,27.0924914 56.152764,28.6284298 C56.1521482,30.1643681 54.9075086,31.4096235 53.3715702,31.4096235 Z" id="path-4"></path>
        <filter x="-98.7%" y="-98.7%" width="297.4%" height="297.4%" filterUnits="objectBoundingBox" id="filter-5">
            <feOffset dx="0" dy="0" in="SourceAlpha" result="shadowOffsetOuter1"></feOffset>
            <feGaussianBlur stdDeviation="12.5" in="shadowOffsetOuter1" result="shadowBlurOuter1"></feGaussianBlur>
            <feColorMatrix values="0 0 0 0 5.73679768e-05   0 0 0 0 0.00814402248   0 0 0 0 0.097118433  0 0 0 0.0562172203 0" type="matrix" in="shadowBlurOuter1"></feColorMatrix>
        </filter>
        <path d="M40.5,0 C18.1358872,0 0,18.1358872 0,40.5 C0,62.8641128 18.1358872,81 40.5,81 C62.8641128,81 81,62.8641128 81,40.5 C81,18.1358872 62.8641128,0 40.5,0 Z M63.6155777,50.0879746 C63.5031052,52.5636062 63.1094512,54.2537842 62.534729,55.7332305 C61.3265762,58.8571243 58.8571243,61.3265762 55.7332305,62.534729 C54.2544021,63.1094512 52.5636062,63.5024873 50.0885925,63.6155777 C47.608635,63.7286682 46.8163833,63.7558594 40.5006179,63.7558594 C34.1842346,63.7558594 33.3926011,63.7286682 30.9120254,63.6155777 C28.4370117,63.5024873 26.7462158,63.1094512 25.2673874,62.534729 C23.7150193,61.950737 22.3097305,61.0355073 21.1479263,59.8520737 C19.9651108,58.6908875 19.0498809,57.2849807 18.4658889,55.7332305 C17.8911667,54.2544021 17.4975127,52.5636062 17.3850403,50.0885925 C17.2707138,47.608017 17.2441406,46.8157654 17.2441406,40.5 C17.2441406,34.1842346 17.2707138,33.391983 17.3844223,30.9120254 C17.4968948,28.4363938 17.8899307,26.7462158 18.4646531,25.2667695 C19.048645,23.7150193 19.9644927,22.3091125 21.1479263,21.1479263 C22.3091125,19.9644927 23.7150193,19.049263 25.2667695,18.465271 C26.7462158,17.8905488 28.4363938,17.4975127 30.9120254,17.3844223 C33.391983,17.2713318 34.1842346,17.2441406 40.5,17.2441406 C46.8157654,17.2441406 47.608017,17.2713318 50.0879746,17.3850403 C52.5636062,17.4975127 54.2537842,17.8905488 55.7332305,18.4646531 C57.2849807,19.048645 58.6908875,19.9644927 59.8526917,21.1479263 C61.0355073,22.3097305 61.951355,23.7150193 62.534729,25.2667695 C63.1100693,26.7462158 63.5031052,28.4363938 63.6161958,30.9120254 C63.7292862,33.391983 63.7558594,34.1842346 63.7558594,40.5 C63.7558594,46.8157654 63.7292862,47.608017 63.6155777,50.0879746 L63.6155777,50.0879746 Z" id="path-6"></path>
        <filter x="-46.3%" y="-46.3%" width="192.6%" height="192.6%" filterUnits="objectBoundingBox" id="filter-7">
            <feOffset dx="0" dy="0" in="SourceAlpha" result="shadowOffsetOuter1"></feOffset>
            <feGaussianBlur stdDeviation="12.5" in="shadowOffsetOuter1" result="shadowBlurOuter1"></feGaussianBlur>
            <feColorMatrix values="0 0 0 0 5.73679768e-05   0 0 0 0 0.00814402248   0 0 0 0 0.097118433  0 0 0 0.0562172203 0" type="matrix" in="shadowBlurOuter1"></feColorMatrix>
        </filter>
    </defs>
    <g id="Page-1" stroke="none" stroke-width="1" fill="none" fill-rule="evenodd">
        <g id="Home" transform="translate(-1026.000000, -1215.000000)">
            <g id="sidefod" transform="translate(-43.000000, 1180.000000)">
                <g id="instagram" transform="translate(1094.000000, 60.000000)">
                    <g id="Path">
                        <use fill="black" fill-opacity="1" filter="url(#filter-3)" xlink:href="#path-2"></use>
                        <use fill="url(#linearGradient-1)" fill-rule="evenodd" xlink:href="#path-2"></use>
                    </g>
                    <g id="Shape">
                        <use fill="black" fill-opacity="1" filter="url(#filter-5)" xlink:href="#path-4"></use>
                        <use fill="url(#linearGradient-1)" fill-rule="evenodd" xlink:href="#path-4"></use>
                    </g>
                    <g id="Shape">
                        <use fill="black" fill-opacity="1" filter="url(#filter-7)" xlink:href="#path-6"></use>
                        <use fill="url(#linearGradient-1)" fill-rule="evenodd" xlink:href="#path-6"></use>
                    </g>
                </g>
            </g>
        </g>
    </g>
</svg>