<?xml version="1.0" encoding="UTF-8"?>
<svg width="131px" height="131px" viewBox="0 0 131 131" version="1.1" xmlns="http://www.w3.org/2000/svg" xmlns:xlink="http://www.w3.org/1999/xlink">
    <title>tiktok</title>
    <defs>
        <linearGradient x1="34.8394439%" y1="15.9744123%" x2="79.2076772%" y2="90.7101132%" id="linearGradient-1">
            <stop stop-color="#FFFFFF" stop-opacity="0.4" offset="0%"></stop>
            <stop stop-color="#FFFFFF" stop-opacity="0.2" offset="100%"></stop>
        </linearGradient>
        <path d="M40.5,0 C18.1359316,0 0,18.1359316 0,40.5 C0,62.8640684 18.1359316,81 40.5,81 C62.8640684,81 81,62.8640684 81,40.5 C81,18.1359316 62.8640684,0 40.5,0 Z M60.8180273,30.9877207 L60.8180273,36.4715156 C58.2321973,36.4724648 55.7197734,35.9657402 53.350207,34.9660547 C51.8265527,34.3228008 50.4069961,33.4939746 49.108623,32.4923906 L49.147541,49.3715566 C49.1312461,53.1723867 47.6275254,56.7435059 44.905957,59.4334336 C42.6911133,61.6229648 39.8845898,63.0153105 36.8426602,63.4660313 C36.1278984,63.5718691 35.4004805,63.6261328 34.6648359,63.6261328 C31.408541,63.6261328 28.3170938,62.5712344 25.7882168,60.6250195 C25.3123418,60.2586211 24.8571914,59.861373 24.423873,59.4334336 C21.474334,56.5182246 19.9533691,52.5672598 20.2095,48.4107891 C20.4048809,45.2468848 21.6716133,42.2294766 23.7833086,39.864498 C26.5771758,36.7349238 30.4857422,34.9978535 34.6648359,34.9978535 C35.4004805,34.9978535 36.1278984,35.0530664 36.8426602,35.1589043 L36.8426602,37.1864355 L36.8426602,42.8266934 C36.164918,42.6031523 35.4411387,42.4802285 34.687459,42.4802285 C30.8693848,42.4802285 27.7804688,45.595248 27.8375801,49.4161699 C27.8738086,51.8608828 29.2092012,53.9978906 31.1788301,55.1758711 C32.1044766,55.729582 33.1693418,56.0725664 34.3057148,56.1348984 C35.196082,56.1837832 36.0510117,56.059752 36.8426602,55.7984004 C39.5705566,54.8972754 41.5384453,52.3350176 41.5384453,49.3130215 L41.5474629,38.0098828 L41.5474629,17.3738672 L49.0994473,17.3738672 C49.1067246,18.122168 49.1826621,18.8522754 49.3237793,19.5597598 C49.8937852,22.4233945 51.5079316,24.9078164 53.754416,26.6015391 C55.7132871,28.078998 58.1524629,28.9548105 60.7961953,28.9548105 C60.7979355,28.9548105 60.8197676,28.9548105 60.8180273,28.9530703 L60.8180273,30.9877207 L60.8180273,30.9877207 Z" id="path-2"></path>
        <filter x="-46.3%" y="-46.3%" width="192.6%" height="192.6%" filterUnits="objectBoundingBox" id="filter-3">
            <feOffset dx="0" dy="0" in="SourceAlpha" result="shadowOffsetOuter1"></feOffset>
            <feGaussianBlur stdDeviation="12.5" in="shadowOffsetOuter1" result="shadowBlurOuter1"></feGaussianBlur>
            <feColorMatrix values="0 0 0 0 5.73679768e-05   0 0 0 0 0.00814402248   0 0 0 0 0.097118433  0 0 0 0.0562172203 0" type="matrix" in="shadowBlurOuter1"></feColorMatrix>
        </filter>
    </defs>
    <g id="Page-1" stroke="none" stroke-width="1" fill="none" fill-rule="evenodd">
        <g id="Home" transform="translate(-913.000000, -1215.000000)">
            <g id="sidefod" transform="translate(-43.000000, 1180.000000)">
                <g id="Shape" transform="translate(981.000000, 60.000000)">
                    <use fill="black" fill-opacity="1" filter="url(#filter-3)" xlink:href="#path-2"></use>
                    <use fill="url(#linearGradient-1)" fill-rule="evenodd" xlink:href="#path-2"></use>
                </g>
            </g>
        </g>
    </g>
</svg>