<?xml version="1.0" encoding="UTF-8"?> <svg version="1.1" viewBox="0 0 65 65" xmlns="http://www.w3.org/2000/svg" xmlns:xlink="http://www.w3.org/1999/xlink"> <defs> <circle id="a" cx="24.5" cy="24.5" r="24.5"/> <filter id="b" x="-24.5%" y="-24.5%" width="149%" height="149%"> <feOffset dx="0" dy="0" in="SourceAlpha" result="shadowOffsetOuter1"/> <feGaussianBlur in="shadowOffsetOuter1" result="shadowBlurOuter1" stdDeviation="4"/> <feColorMatrix in="shadowBlurOuter1" values="0 0 0 0 0.686918499   0 0 0 0 0.746375588   0 0 0 0 0.821359828  0 0 0 0.5 0"/> </filter> </defs> <g fill="none" fill-rule="evenodd"> <g transform="translate(-1691 -213)"> <g transform="translate(1699 221)"> <use fill="black" filter="url(#b)" xlink:href="#a"/> <use fill="#FFFFFF" fill-rule="evenodd" xlink:href="#a"/> <g transform="translate(12 12)" fill="#8791A9" fill-rule="nonzero" opacity=".67262"> <path d="m18.971 11.381 4.925-4.9247c1.4716-1.4719 1.4716-3.8804 0-5.352-1.4719-1.4719-3.8804-1.4719-5.3523 0l-4.9246 4.9247c-0.61825 0.61826-1.6207 0.61826-2.2389 0l-4.9246-4.9247c-1.4719-1.4719-3.8801-1.4719-5.3519 0-1.4719 1.4716-1.4719 3.8801 0 5.352l4.9246 4.9247c0.61825 0.61826 0.61825 1.6207 0 2.239l-4.9246 4.9247c-1.4719 1.4719-1.4719 3.8804 0 5.352 1.4719 1.4719 3.8801 1.4719 5.3519 0l4.9246-4.9247c0.61825-0.61826 1.6207-0.61826 2.2389 0l4.9246 4.9247c1.4719 1.4719 3.8804 1.4719 5.3523 0 1.4716-1.4716 1.4716-3.8801 0-5.352l-4.925-4.9247c-0.61825-0.61826-0.61825-1.6207 0-2.239z"/> </g> </g> </g> </g> </svg>