<?xml version="1.0" encoding="UTF-8"?>
<svg width="87px" height="51px" viewBox="0 0 87 51" version="1.1" xmlns="http://www.w3.org/2000/svg" xmlns:xlink="http://www.w3.org/1999/xlink">
    <title>Home</title>
    <defs>
        <linearGradient x1="34.8394439%" y1="42.715841%" x2="79.2076772%" y2="58.7151746%" id="linearGradient-1">
            <stop stop-color="#FFFFFF" stop-opacity="0.4" offset="0%"></stop>
            <stop stop-color="#FFFFFF" stop-opacity="0.2" offset="100%"></stop>
        </linearGradient>
        <path d="M15.5,0 L51.5,0 C60.0604136,-1.57252247e-15 67,6.93958638 67,15.5 C67,24.0604136 60.0604136,31 51.5,31 L15.5,31 C6.93958638,31 1.04834831e-15,24.0604136 0,15.5 C-1.04834831e-15,6.93958638 6.93958638,1.57252247e-15 15.5,0 Z" id="path-2"></path>
        <filter x="-22.4%" y="-48.4%" width="144.8%" height="196.8%" filterUnits="objectBoundingBox" id="filter-3">
            <feOffset dx="0" dy="0" in="SourceAlpha" result="shadowOffsetOuter1"></feOffset>
            <feGaussianBlur stdDeviation="5" in="shadowOffsetOuter1" result="shadowBlurOuter1"></feGaussianBlur>
            <feColorMatrix values="0 0 0 0 5.73679768e-05   0 0 0 0 0.00814402248   0 0 0 0 0.097118433  0 0 0 0.198563156 0" type="matrix" in="shadowBlurOuter1"></feColorMatrix>
        </filter>
        <linearGradient x1="0%" y1="42.4016087%" x2="181.346259%" y2="57.5983913%" id="linearGradient-4">
            <stop stop-color="#8C7FC0" offset="0%"></stop>
            <stop stop-color="#1D1E43" offset="100%"></stop>
        </linearGradient>
        <text id="text-5" font-family="Avenir-Light, Avenir" font-size="12" font-weight="300" letter-spacing="-0.400000457" fill="#FFFFFF">
            <tspan x="18" y="20">Home</tspan>
        </text>
        <filter x="-18.8%" y="-37.5%" width="137.5%" height="175.0%" filterUnits="objectBoundingBox" id="filter-6">
            <feOffset dx="0" dy="0" in="SourceAlpha" result="shadowOffsetOuter1"></feOffset>
            <feGaussianBlur stdDeviation="2" in="shadowOffsetOuter1" result="shadowBlurOuter1"></feGaussianBlur>
            <feColorMatrix values="0 0 0 0 1   0 0 0 0 1   0 0 0 0 1  0 0 0 0.346700175 0" type="matrix" in="shadowBlurOuter1"></feColorMatrix>
        </filter>
    </defs>
    <g id="Page-1" stroke="none" stroke-width="1" fill="none" fill-rule="evenodd">
        <g id="App" transform="translate(-4.000000, -312.000000)">
            <g id="sidehoved" transform="translate(6.000000, 315.000000)">
                <g id="Home" transform="translate(8.000000, 7.000000)">
                    <g id="Rectangle">
                        <use fill="black" fill-opacity="1" filter="url(#filter-3)" xlink:href="#path-2"></use>
                        <use fill="url(#linearGradient-1)" fill-rule="evenodd" xlink:href="#path-2"></use>
                    </g>
                    <path d="M15.5,4 L51.5,4 C57.8512746,4 63,9.14872538 63,15.5 C63,21.8512746 57.8512746,27 51.5,27 L15.5,27 C9.14872538,27 4,21.8512746 4,15.5 C4,9.14872538 9.14872538,4 15.5,4 Z" id="Rectangle" fill="url(#linearGradient-4)" opacity="0.897693452"></path>
                    <g fill="#FFFFFF" fill-opacity="1">
                        <use filter="url(#filter-6)" xlink:href="#text-5"></use>
                        <use xlink:href="#text-5"></use>
                    </g>
                </g>
            </g>
        </g>
    </g>
</svg>