<?xml version="1.0" encoding="UTF-8"?>
<svg width="115px" height="51px" viewBox="0 0 115 51" version="1.1" xmlns="http://www.w3.org/2000/svg" xmlns:xlink="http://www.w3.org/1999/xlink">
    <title>Social Club</title>
    <defs>
        <linearGradient x1="34.8394439%" y1="46.3768876%" x2="79.2076772%" y2="54.3348941%" id="linearGradient-1">
            <stop stop-color="#FFFFFF" stop-opacity="0.4" offset="0%"></stop>
            <stop stop-color="#FFFFFF" stop-opacity="0.2" offset="100%"></stop>
        </linearGradient>
        <path d="M15.5,0 L79.5,0 C88.0604136,-1.57252247e-15 95,6.93958638 95,15.5 C95,24.0604136 88.0604136,31 79.5,31 L15.5,31 C6.93958638,31 -1.31625064e-14,24.0604136 -1.42108547e-14,15.5 C-1.5259203e-14,6.93958638 6.93958638,1.57252247e-15 15.5,0 Z" id="path-2"></path>
        <filter x="-15.8%" y="-48.4%" width="131.6%" height="196.8%" filterUnits="objectBoundingBox" id="filter-3">
            <feOffset dx="0" dy="0" in="SourceAlpha" result="shadowOffsetOuter1"></feOffset>
            <feGaussianBlur stdDeviation="5" in="shadowOffsetOuter1" result="shadowBlurOuter1"></feGaussianBlur>
            <feColorMatrix values="0 0 0 0 5.73679768e-05   0 0 0 0 0.00814402248   0 0 0 0 0.097118433  0 0 0 0.198563156 0" type="matrix" in="shadowBlurOuter1"></feColorMatrix>
        </filter>
        <linearGradient x1="-13.856151%" y1="45.5604726%" x2="109.153228%" y2="53.5762574%" id="linearGradient-4">
            <stop stop-color="#8ACBC9" offset="0%"></stop>
            <stop stop-color="#117261" offset="100%"></stop>
        </linearGradient>
        <text id="text-5" font-family="Avenir-Light, Avenir" font-size="12" font-weight="300" letter-spacing="-0.400000457" fill="#FFFFFF">
            <tspan x="20" y="20">Social Club</tspan>
        </text>
        <filter x="-10.7%" y="-37.5%" width="121.4%" height="175.0%" filterUnits="objectBoundingBox" id="filter-6">
            <feOffset dx="0" dy="0" in="SourceAlpha" result="shadowOffsetOuter1"></feOffset>
            <feGaussianBlur stdDeviation="2" in="shadowOffsetOuter1" result="shadowBlurOuter1"></feGaussianBlur>
            <feColorMatrix values="0 0 0 0 1   0 0 0 0 1   0 0 0 0 1  0 0 0 0.346700175 0" type="matrix" in="shadowBlurOuter1"></feColorMatrix>
        </filter>
    </defs>
    <g id="Page-1" stroke="none" stroke-width="1" fill="none" fill-rule="evenodd">
        <g id="App" transform="translate(-253.000000, -312.000000)">
            <g id="sidehoved" transform="translate(6.000000, 315.000000)">
                <g id="Social-Club" transform="translate(257.000000, 7.000000)">
                    <g id="Rectangle">
                        <use fill="black" fill-opacity="1" filter="url(#filter-3)" xlink:href="#path-2"></use>
                        <use fill="url(#linearGradient-1)" fill-rule="evenodd" xlink:href="#path-2"></use>
                    </g>
                    <path d="M16,4 L79,4 C85.3512746,4 90.5,9.14872538 90.5,15.5 C90.5,21.8512746 85.3512746,27 79,27 L16,27 C9.64872538,27 4.5,21.8512746 4.5,15.5 C4.5,9.14872538 9.64872538,4 16,4 Z" id="Rectangle" fill="url(#linearGradient-4)" opacity="0.897693452"></path>
                    <g fill="#FFFFFF" fill-opacity="1">
                        <use filter="url(#filter-6)" xlink:href="#text-5"></use>
                        <use xlink:href="#text-5"></use>
                    </g>
                </g>
            </g>
        </g>
    </g>
</svg>