<?xml version="1.0" encoding="UTF-8"?>
<svg width="76px" height="76px" viewBox="0 0 76 76" version="1.1" xmlns="http://www.w3.org/2000/svg" xmlns:xlink="http://www.w3.org/1999/xlink">
    <title>Group 6</title>
    <defs>
        <linearGradient x1="34.8394439%" y1="15.9744123%" x2="79.2076772%" y2="90.7101132%" id="linearGradient-1">
            <stop stop-color="#FFFFFF" stop-opacity="0.4" offset="0%"></stop>
            <stop stop-color="#FFFFFF" stop-opacity="0.2" offset="100%"></stop>
        </linearGradient>
        <path d="M15.7283951,13.1604938 C15.7283951,14.5787352 14.5787352,15.7283951 13.1604938,15.7283951 C11.7422525,15.7283951 10.5925926,14.5787352 10.5925926,13.1604938 C10.5925926,11.7422525 11.7422525,10.5925926 13.1604938,10.5925926 C14.5787352,10.5925926 15.7283951,11.7422525 15.7283951,13.1604938 Z" id="path-2"></path>
        <filter x="-730.2%" y="-730.2%" width="1560.3%" height="1560.3%" filterUnits="objectBoundingBox" id="filter-3">
            <feOffset dx="0" dy="0" in="SourceAlpha" result="shadowOffsetOuter1"></feOffset>
            <feGaussianBlur stdDeviation="12.5" in="shadowOffsetOuter1" result="shadowBlurOuter1"></feGaussianBlur>
            <feColorMatrix values="0 0 0 0 5.73679768e-05   0 0 0 0 0.00814402248   0 0 0 0 0.097118433  0 0 0 0.0562172203 0" type="matrix" in="shadowBlurOuter1"></feColorMatrix>
        </filter>
        <path d="M18.959772,8.77305567 C18.8405702,8.45004436 18.6504008,8.15767367 18.4032991,7.91768856 C18.163314,7.67058688 17.871141,7.48041747 17.547932,7.36121562 C17.2858066,7.25940972 16.8920254,7.13823108 16.1667326,7.10521829 C15.3821354,7.06943798 15.1468946,7.0617284 13.1605927,7.0617284 C11.174093,7.0617284 10.9388522,7.06924031 10.1544527,7.10502062 C9.42915995,7.13823108 9.03518108,7.25940972 8.77325334,7.36121562 C8.45004436,7.48041747 8.15767367,7.67058688 7.91788623,7.91768856 C7.67078455,8.15767367 7.48061514,8.44984669 7.36121562,8.77305567 C7.25940972,9.03518108 7.13823108,9.42915995 7.10521829,10.1544527 C7.06943798,10.9388522 7.0617284,11.174093 7.0617284,13.1605927 C7.0617284,15.1468946 7.06943798,15.3821354 7.10521829,16.1667326 C7.13823108,16.8920254 7.25940972,17.2858066 7.36121562,17.547932 C7.48061514,17.871141 7.67058688,18.163314 7.91768856,18.4032991 C8.15767367,18.6504008 8.44984664,18.8405702 8.77305562,18.959772 C9.03518108,19.0617756 9.42915995,19.1829542 10.1544527,19.215967 C10.9388522,19.2517474 11.1738954,19.2592593 13.160395,19.2592593 C15.1470923,19.2592593 15.3823331,19.2517474 16.1665349,19.215967 C16.8918277,19.1829542 17.2858066,19.0617756 17.547932,18.959772 C18.1967221,18.7095075 18.7095075,18.1967221 18.959772,17.547932 C19.0615779,17.2858066 19.1827566,16.8920254 19.215967,16.1667326 C19.2517473,15.3821354 19.2592593,15.1468946 19.2592593,13.1605927 C19.2592593,11.174093 19.2517473,10.9388522 19.215967,10.1544527 C19.1829542,9.42915995 19.0617756,9.03518108 18.959772,8.77305567 L18.959772,8.77305567 Z M13.1605927,16.9803889 C11.0507399,16.9803889 9.34040105,15.2702478 9.34040105,13.160395 C9.34040105,11.0505422 11.0507399,9.34040105 13.1605927,9.34040105 C15.2702478,9.34040105 16.9805866,11.0505422 16.9805866,13.160395 C16.9805866,15.2702478 15.2702478,16.9803889 13.1605927,16.9803889 Z M17.1316151,10.0821014 C16.6385979,10.0821014 16.2388863,9.68238977 16.2388863,9.18937252 C16.2388863,8.69635527 16.6385979,8.29664365 17.1316151,8.29664365 C17.6246324,8.29664365 18.024344,8.69635527 18.024344,9.18937252 C18.0241463,9.68238977 17.6246324,10.0821014 17.1316151,10.0821014 Z" id="path-4"></path>
        <filter x="-307.4%" y="-307.4%" width="714.9%" height="714.9%" filterUnits="objectBoundingBox" id="filter-5">
            <feOffset dx="0" dy="0" in="SourceAlpha" result="shadowOffsetOuter1"></feOffset>
            <feGaussianBlur stdDeviation="12.5" in="shadowOffsetOuter1" result="shadowBlurOuter1"></feGaussianBlur>
            <feColorMatrix values="0 0 0 0 5.73679768e-05   0 0 0 0 0.00814402248   0 0 0 0 0.097118433  0 0 0 0.0562172203 0" type="matrix" in="shadowBlurOuter1"></feColorMatrix>
        </filter>
        <path d="M13,0 C5.82139589,0 0,5.82139589 0,13 C0,20.1786041 5.82139589,26 13,26 C20.1786041,26 26,20.1786041 26,13 C26,5.82139589 20.1786041,0 13,0 Z M20.4198151,16.0776215 C20.3837128,16.8722687 20.2573547,17.4147949 20.072876,17.8896789 C19.6850738,18.8924103 18.8924103,19.6850738 17.8896789,20.072876 C17.4149933,20.2573547 16.8722687,20.3835144 16.0778198,20.4198151 C15.2817841,20.4561157 15.0274811,20.4648438 13.0001984,20.4648438 C10.9727173,20.4648438 10.7186127,20.4561157 9.92237853,20.4198151 C9.12792969,20.3835144 8.58520508,20.2573547 8.11051942,20.072876 C7.61222841,19.8854218 7.16114806,19.5916443 6.78822325,19.2117767 C6.40855409,18.8390503 6.11477659,18.3877716 5.92732238,17.8896789 C5.74284364,17.4149933 5.61648557,16.8722687 5.5803833,16.0778198 C5.54368593,15.2815857 5.53515625,15.0272827 5.53515625,13 C5.53515625,10.9727173 5.54368593,10.7184143 5.58018495,9.92237853 C5.61628722,9.12773134 5.74244689,8.58520508 5.92692567,8.11032107 C6.11437988,7.61222841 6.40835569,7.16094971 6.78822325,6.78822325 C7.16094971,6.40835569 7.61222841,6.11457823 8.11032107,5.92712402 C8.58520508,5.74264529 9.12773134,5.61648557 9.92237853,5.58018495 C10.7184143,5.54388428 10.9727173,5.53515625 13,5.53515625 C15.0272827,5.53515625 15.2815857,5.54388428 16.0776215,5.5803833 C16.8722687,5.61648557 17.4147949,5.74264529 17.8896789,5.92692567 C18.3877716,6.11437988 18.8390503,6.40835569 19.2119751,6.78822325 C19.5916443,7.16114806 19.8856201,7.61222841 20.072876,8.11032107 C20.2575531,8.58520508 20.3837128,9.12773134 20.4200135,9.92237853 C20.4563141,10.7184143 20.4648437,10.9727173 20.4648437,13 C20.4648437,15.0272827 20.4563141,15.2815857 20.4198151,16.0776215 L20.4198151,16.0776215 Z" id="path-6"></path>
        <filter x="-144.2%" y="-144.2%" width="388.5%" height="388.5%" filterUnits="objectBoundingBox" id="filter-7">
            <feOffset dx="0" dy="0" in="SourceAlpha" result="shadowOffsetOuter1"></feOffset>
            <feGaussianBlur stdDeviation="12.5" in="shadowOffsetOuter1" result="shadowBlurOuter1"></feGaussianBlur>
            <feColorMatrix values="0 0 0 0 5.73679768e-05   0 0 0 0 0.00814402248   0 0 0 0 0.097118433  0 0 0 0.0562172203 0" type="matrix" in="shadowBlurOuter1"></feColorMatrix>
        </filter>
        <path d="M15.7283951,13.1604938 C15.7283951,14.5787352 14.5787352,15.7283951 13.1604938,15.7283951 C11.7422525,15.7283951 10.5925926,14.5787352 10.5925926,13.1604938 C10.5925926,11.7422525 11.7422525,10.5925926 13.1604938,10.5925926 C14.5787352,10.5925926 15.7283951,11.7422525 15.7283951,13.1604938 Z" id="path-8"></path>
        <filter x="-730.2%" y="-730.2%" width="1560.3%" height="1560.3%" filterUnits="objectBoundingBox" id="filter-9">
            <feOffset dx="0" dy="0" in="SourceAlpha" result="shadowOffsetOuter1"></feOffset>
            <feGaussianBlur stdDeviation="12.5" in="shadowOffsetOuter1" result="shadowBlurOuter1"></feGaussianBlur>
            <feColorMatrix values="0 0 0 0 5.73679768e-05   0 0 0 0 0.00814402248   0 0 0 0 0.097118433  0 0 0 0.0562172203 0" type="matrix" in="shadowBlurOuter1"></feColorMatrix>
        </filter>
        <path d="M18.959772,8.77305567 C18.8405702,8.45004436 18.6504008,8.15767367 18.4032991,7.91768856 C18.163314,7.67058688 17.871141,7.48041747 17.547932,7.36121562 C17.2858066,7.25940972 16.8920254,7.13823108 16.1667326,7.10521829 C15.3821354,7.06943798 15.1468946,7.0617284 13.1605927,7.0617284 C11.174093,7.0617284 10.9388522,7.06924031 10.1544527,7.10502062 C9.42915995,7.13823108 9.03518108,7.25940972 8.77325334,7.36121562 C8.45004436,7.48041747 8.15767367,7.67058688 7.91788623,7.91768856 C7.67078455,8.15767367 7.48061514,8.44984669 7.36121562,8.77305567 C7.25940972,9.03518108 7.13823108,9.42915995 7.10521829,10.1544527 C7.06943798,10.9388522 7.0617284,11.174093 7.0617284,13.1605927 C7.0617284,15.1468946 7.06943798,15.3821354 7.10521829,16.1667326 C7.13823108,16.8920254 7.25940972,17.2858066 7.36121562,17.547932 C7.48061514,17.871141 7.67058688,18.163314 7.91768856,18.4032991 C8.15767367,18.6504008 8.44984664,18.8405702 8.77305562,18.959772 C9.03518108,19.0617756 9.42915995,19.1829542 10.1544527,19.215967 C10.9388522,19.2517474 11.1738954,19.2592593 13.160395,19.2592593 C15.1470923,19.2592593 15.3823331,19.2517474 16.1665349,19.215967 C16.8918277,19.1829542 17.2858066,19.0617756 17.547932,18.959772 C18.1967221,18.7095075 18.7095075,18.1967221 18.959772,17.547932 C19.0615779,17.2858066 19.1827566,16.8920254 19.215967,16.1667326 C19.2517473,15.3821354 19.2592593,15.1468946 19.2592593,13.1605927 C19.2592593,11.174093 19.2517473,10.9388522 19.215967,10.1544527 C19.1829542,9.42915995 19.0617756,9.03518108 18.959772,8.77305567 L18.959772,8.77305567 Z M13.1605927,16.9803889 C11.0507399,16.9803889 9.34040105,15.2702478 9.34040105,13.160395 C9.34040105,11.0505422 11.0507399,9.34040105 13.1605927,9.34040105 C15.2702478,9.34040105 16.9805866,11.0505422 16.9805866,13.160395 C16.9805866,15.2702478 15.2702478,16.9803889 13.1605927,16.9803889 Z M17.1316151,10.0821014 C16.6385979,10.0821014 16.2388863,9.68238977 16.2388863,9.18937252 C16.2388863,8.69635527 16.6385979,8.29664365 17.1316151,8.29664365 C17.6246324,8.29664365 18.024344,8.69635527 18.024344,9.18937252 C18.0241463,9.68238977 17.6246324,10.0821014 17.1316151,10.0821014 Z" id="path-10"></path>
        <filter x="-307.4%" y="-307.4%" width="714.9%" height="714.9%" filterUnits="objectBoundingBox" id="filter-11">
            <feOffset dx="0" dy="0" in="SourceAlpha" result="shadowOffsetOuter1"></feOffset>
            <feGaussianBlur stdDeviation="12.5" in="shadowOffsetOuter1" result="shadowBlurOuter1"></feGaussianBlur>
            <feColorMatrix values="0 0 0 0 5.73679768e-05   0 0 0 0 0.00814402248   0 0 0 0 0.097118433  0 0 0 0.0562172203 0" type="matrix" in="shadowBlurOuter1"></feColorMatrix>
        </filter>
        <path d="M13,0 C5.82139589,0 0,5.82139589 0,13 C0,20.1786041 5.82139589,26 13,26 C20.1786041,26 26,20.1786041 26,13 C26,5.82139589 20.1786041,0 13,0 Z M20.4198151,16.0776215 C20.3837128,16.8722687 20.2573547,17.4147949 20.072876,17.8896789 C19.6850738,18.8924103 18.8924103,19.6850738 17.8896789,20.072876 C17.4149933,20.2573547 16.8722687,20.3835144 16.0778198,20.4198151 C15.2817841,20.4561157 15.0274811,20.4648438 13.0001984,20.4648438 C10.9727173,20.4648438 10.7186127,20.4561157 9.92237853,20.4198151 C9.12792969,20.3835144 8.58520508,20.2573547 8.11051942,20.072876 C7.61222841,19.8854218 7.16114806,19.5916443 6.78822325,19.2117767 C6.40855409,18.8390503 6.11477659,18.3877716 5.92732238,17.8896789 C5.74284364,17.4149933 5.61648557,16.8722687 5.5803833,16.0778198 C5.54368593,15.2815857 5.53515625,15.0272827 5.53515625,13 C5.53515625,10.9727173 5.54368593,10.7184143 5.58018495,9.92237853 C5.61628722,9.12773134 5.74244689,8.58520508 5.92692567,8.11032107 C6.11437988,7.61222841 6.40835569,7.16094971 6.78822325,6.78822325 C7.16094971,6.40835569 7.61222841,6.11457823 8.11032107,5.92712402 C8.58520508,5.74264529 9.12773134,5.61648557 9.92237853,5.58018495 C10.7184143,5.54388428 10.9727173,5.53515625 13,5.53515625 C15.0272827,5.53515625 15.2815857,5.54388428 16.0776215,5.5803833 C16.8722687,5.61648557 17.4147949,5.74264529 17.8896789,5.92692567 C18.3877716,6.11437988 18.8390503,6.40835569 19.2119751,6.78822325 C19.5916443,7.16114806 19.8856201,7.61222841 20.072876,8.11032107 C20.2575531,8.58520508 20.3837128,9.12773134 20.4200135,9.92237853 C20.4563141,10.7184143 20.4648437,10.9727173 20.4648437,13 C20.4648437,15.0272827 20.4563141,15.2815857 20.4198151,16.0776215 L20.4198151,16.0776215 Z" id="path-12"></path>
        <filter x="-144.2%" y="-144.2%" width="388.5%" height="388.5%" filterUnits="objectBoundingBox" id="filter-13">
            <feOffset dx="0" dy="0" in="SourceAlpha" result="shadowOffsetOuter1"></feOffset>
            <feGaussianBlur stdDeviation="12.5" in="shadowOffsetOuter1" result="shadowBlurOuter1"></feGaussianBlur>
            <feColorMatrix values="0 0 0 0 5.73679768e-05   0 0 0 0 0.00814402248   0 0 0 0 0.097118433  0 0 0 0.0562172203 0" type="matrix" in="shadowBlurOuter1"></feColorMatrix>
        </filter>
        <path d="M15.7283951,13.1604938 C15.7283951,14.5787352 14.5787352,15.7283951 13.1604938,15.7283951 C11.7422525,15.7283951 10.5925926,14.5787352 10.5925926,13.1604938 C10.5925926,11.7422525 11.7422525,10.5925926 13.1604938,10.5925926 C14.5787352,10.5925926 15.7283951,11.7422525 15.7283951,13.1604938 Z" id="path-14"></path>
        <filter x="-730.2%" y="-730.2%" width="1560.3%" height="1560.3%" filterUnits="objectBoundingBox" id="filter-15">
            <feOffset dx="0" dy="0" in="SourceAlpha" result="shadowOffsetOuter1"></feOffset>
            <feGaussianBlur stdDeviation="12.5" in="shadowOffsetOuter1" result="shadowBlurOuter1"></feGaussianBlur>
            <feColorMatrix values="0 0 0 0 5.73679768e-05   0 0 0 0 0.00814402248   0 0 0 0 0.097118433  0 0 0 0.0562172203 0" type="matrix" in="shadowBlurOuter1"></feColorMatrix>
        </filter>
        <path d="M18.959772,8.77305567 C18.8405702,8.45004436 18.6504008,8.15767367 18.4032991,7.91768856 C18.163314,7.67058688 17.871141,7.48041747 17.547932,7.36121562 C17.2858066,7.25940972 16.8920254,7.13823108 16.1667326,7.10521829 C15.3821354,7.06943798 15.1468946,7.0617284 13.1605927,7.0617284 C11.174093,7.0617284 10.9388522,7.06924031 10.1544527,7.10502062 C9.42915995,7.13823108 9.03518108,7.25940972 8.77325334,7.36121562 C8.45004436,7.48041747 8.15767367,7.67058688 7.91788623,7.91768856 C7.67078455,8.15767367 7.48061514,8.44984669 7.36121562,8.77305567 C7.25940972,9.03518108 7.13823108,9.42915995 7.10521829,10.1544527 C7.06943798,10.9388522 7.0617284,11.174093 7.0617284,13.1605927 C7.0617284,15.1468946 7.06943798,15.3821354 7.10521829,16.1667326 C7.13823108,16.8920254 7.25940972,17.2858066 7.36121562,17.547932 C7.48061514,17.871141 7.67058688,18.163314 7.91768856,18.4032991 C8.15767367,18.6504008 8.44984664,18.8405702 8.77305562,18.959772 C9.03518108,19.0617756 9.42915995,19.1829542 10.1544527,19.215967 C10.9388522,19.2517474 11.1738954,19.2592593 13.160395,19.2592593 C15.1470923,19.2592593 15.3823331,19.2517474 16.1665349,19.215967 C16.8918277,19.1829542 17.2858066,19.0617756 17.547932,18.959772 C18.1967221,18.7095075 18.7095075,18.1967221 18.959772,17.547932 C19.0615779,17.2858066 19.1827566,16.8920254 19.215967,16.1667326 C19.2517473,15.3821354 19.2592593,15.1468946 19.2592593,13.1605927 C19.2592593,11.174093 19.2517473,10.9388522 19.215967,10.1544527 C19.1829542,9.42915995 19.0617756,9.03518108 18.959772,8.77305567 L18.959772,8.77305567 Z M13.1605927,16.9803889 C11.0507399,16.9803889 9.34040105,15.2702478 9.34040105,13.160395 C9.34040105,11.0505422 11.0507399,9.34040105 13.1605927,9.34040105 C15.2702478,9.34040105 16.9805866,11.0505422 16.9805866,13.160395 C16.9805866,15.2702478 15.2702478,16.9803889 13.1605927,16.9803889 Z M17.1316151,10.0821014 C16.6385979,10.0821014 16.2388863,9.68238977 16.2388863,9.18937252 C16.2388863,8.69635527 16.6385979,8.29664365 17.1316151,8.29664365 C17.6246324,8.29664365 18.024344,8.69635527 18.024344,9.18937252 C18.0241463,9.68238977 17.6246324,10.0821014 17.1316151,10.0821014 Z" id="path-16"></path>
        <filter x="-307.4%" y="-307.4%" width="714.9%" height="714.9%" filterUnits="objectBoundingBox" id="filter-17">
            <feOffset dx="0" dy="0" in="SourceAlpha" result="shadowOffsetOuter1"></feOffset>
            <feGaussianBlur stdDeviation="12.5" in="shadowOffsetOuter1" result="shadowBlurOuter1"></feGaussianBlur>
            <feColorMatrix values="0 0 0 0 5.73679768e-05   0 0 0 0 0.00814402248   0 0 0 0 0.097118433  0 0 0 0.0562172203 0" type="matrix" in="shadowBlurOuter1"></feColorMatrix>
        </filter>
        <path d="M13,0 C5.82139589,0 0,5.82139589 0,13 C0,20.1786041 5.82139589,26 13,26 C20.1786041,26 26,20.1786041 26,13 C26,5.82139589 20.1786041,0 13,0 Z M20.4198151,16.0776215 C20.3837128,16.8722687 20.2573547,17.4147949 20.072876,17.8896789 C19.6850738,18.8924103 18.8924103,19.6850738 17.8896789,20.072876 C17.4149933,20.2573547 16.8722687,20.3835144 16.0778198,20.4198151 C15.2817841,20.4561157 15.0274811,20.4648438 13.0001984,20.4648438 C10.9727173,20.4648438 10.7186127,20.4561157 9.92237853,20.4198151 C9.12792969,20.3835144 8.58520508,20.2573547 8.11051942,20.072876 C7.61222841,19.8854218 7.16114806,19.5916443 6.78822325,19.2117767 C6.40855409,18.8390503 6.11477659,18.3877716 5.92732238,17.8896789 C5.74284364,17.4149933 5.61648557,16.8722687 5.5803833,16.0778198 C5.54368593,15.2815857 5.53515625,15.0272827 5.53515625,13 C5.53515625,10.9727173 5.54368593,10.7184143 5.58018495,9.92237853 C5.61628722,9.12773134 5.74244689,8.58520508 5.92692567,8.11032107 C6.11437988,7.61222841 6.40835569,7.16094971 6.78822325,6.78822325 C7.16094971,6.40835569 7.61222841,6.11457823 8.11032107,5.92712402 C8.58520508,5.74264529 9.12773134,5.61648557 9.92237853,5.58018495 C10.7184143,5.54388428 10.9727173,5.53515625 13,5.53515625 C15.0272827,5.53515625 15.2815857,5.54388428 16.0776215,5.5803833 C16.8722687,5.61648557 17.4147949,5.74264529 17.8896789,5.92692567 C18.3877716,6.11437988 18.8390503,6.40835569 19.2119751,6.78822325 C19.5916443,7.16114806 19.8856201,7.61222841 20.072876,8.11032107 C20.2575531,8.58520508 20.3837128,9.12773134 20.4200135,9.92237853 C20.4563141,10.7184143 20.4648437,10.9727173 20.4648437,13 C20.4648437,15.0272827 20.4563141,15.2815857 20.4198151,16.0776215 L20.4198151,16.0776215 Z" id="path-18"></path>
        <filter x="-144.2%" y="-144.2%" width="388.5%" height="388.5%" filterUnits="objectBoundingBox" id="filter-19">
            <feOffset dx="0" dy="0" in="SourceAlpha" result="shadowOffsetOuter1"></feOffset>
            <feGaussianBlur stdDeviation="12.5" in="shadowOffsetOuter1" result="shadowBlurOuter1"></feGaussianBlur>
            <feColorMatrix values="0 0 0 0 5.73679768e-05   0 0 0 0 0.00814402248   0 0 0 0 0.097118433  0 0 0 0.0562172203 0" type="matrix" in="shadowBlurOuter1"></feColorMatrix>
        </filter>
    </defs>
    <g id="Page-1" stroke="none" stroke-width="1" fill="none" fill-rule="evenodd">
        <g id="Home" transform="translate(-186.000000, -723.000000)">
            <g id="Sidefod" transform="translate(0.000000, 730.000000)">
                <g id="Group-2" transform="translate(117.000000, 18.000000)">
                    <g id="SoMe" transform="translate(21.000000, 0.000000)">
                        <g id="Group-6" transform="translate(73.000000, 0.000000)">
                            <g id="instagram">
                                <g id="Path">
                                    <use fill="black" fill-opacity="1" filter="url(#filter-3)" xlink:href="#path-2"></use>
                                    <use fill="url(#linearGradient-1)" fill-rule="evenodd" xlink:href="#path-2"></use>
                                </g>
                                <g id="Shape">
                                    <use fill="black" fill-opacity="1" filter="url(#filter-5)" xlink:href="#path-4"></use>
                                    <use fill="url(#linearGradient-1)" fill-rule="evenodd" xlink:href="#path-4"></use>
                                </g>
                                <g id="Shape">
                                    <use fill="black" fill-opacity="1" filter="url(#filter-7)" xlink:href="#path-6"></use>
                                    <use fill="url(#linearGradient-1)" fill-rule="evenodd" xlink:href="#path-6"></use>
                                </g>
                            </g>
                            <g id="instagram">
                                <g id="Path">
                                    <use fill="black" fill-opacity="1" filter="url(#filter-9)" xlink:href="#path-8"></use>
                                    <use fill="url(#linearGradient-1)" fill-rule="evenodd" xlink:href="#path-8"></use>
                                </g>
                                <g id="Shape">
                                    <use fill="black" fill-opacity="1" filter="url(#filter-11)" xlink:href="#path-10"></use>
                                    <use fill="url(#linearGradient-1)" fill-rule="evenodd" xlink:href="#path-10"></use>
                                </g>
                                <g id="Shape">
                                    <use fill="black" fill-opacity="1" filter="url(#filter-13)" xlink:href="#path-12"></use>
                                    <use fill="url(#linearGradient-1)" fill-rule="evenodd" xlink:href="#path-12"></use>
                                </g>
                            </g>
                            <g id="instagram">
                                <g id="Path">
                                    <use fill="black" fill-opacity="1" filter="url(#filter-15)" xlink:href="#path-14"></use>
                                    <use fill="url(#linearGradient-1)" fill-rule="evenodd" xlink:href="#path-14"></use>
                                </g>
                                <g id="Shape">
                                    <use fill="black" fill-opacity="1" filter="url(#filter-17)" xlink:href="#path-16"></use>
                                    <use fill="url(#linearGradient-1)" fill-rule="evenodd" xlink:href="#path-16"></use>
                                </g>
                                <g id="Shape">
                                    <use fill="black" fill-opacity="1" filter="url(#filter-19)" xlink:href="#path-18"></use>
                                    <use fill="url(#linearGradient-1)" fill-rule="evenodd" xlink:href="#path-18"></use>
                                </g>
                            </g>
                        </g>
                    </g>
                </g>
            </g>
        </g>
    </g>
</svg>