<?xml version="1.0" encoding="UTF-8"?>
<svg width="76px" height="76px" viewBox="0 0 76 76" version="1.1" xmlns="http://www.w3.org/2000/svg" xmlns:xlink="http://www.w3.org/1999/xlink">
    <title>Group 5</title>
    <defs>
        <linearGradient x1="34.8394439%" y1="15.9744123%" x2="79.2076772%" y2="90.7101132%" id="linearGradient-1">
            <stop stop-color="#FFFFFF" stop-opacity="0.4" offset="0%"></stop>
            <stop stop-color="#FFFFFF" stop-opacity="0.2" offset="100%"></stop>
        </linearGradient>
        <path d="M13,0 C5.82141016,0 0,5.82141016 0,13 C0,20.1785898 5.82141016,26 13,26 C20.1785898,26 26,20.1785898 26,13 C26,5.82141016 20.1785898,0 13,0 Z M19.5218359,9.94667578 L19.5218359,11.7069062 C18.6918164,11.7072109 17.8853594,11.5445586 17.1247578,11.2236719 C16.6356836,11.0171953 16.1800234,10.7511523 15.7632617,10.4296563 L15.7757539,15.8476602 C15.7705234,17.0676797 15.2878477,18.2139648 14.4142578,19.0773984 C13.7033203,19.7802109 12.8024609,20.2271367 11.8260391,20.3718125 C11.5966094,20.4057852 11.3631172,20.4232031 11.1269844,20.4232031 C10.0817539,20.4232031 9.0894375,20.0845937 8.27769922,19.4598828 C8.12494922,19.3422734 7.97885156,19.2147617 7.83976172,19.0773984 C6.89299609,18.1416523 6.40478516,16.8734414 6.487,15.5392656 C6.54971484,14.5236914 6.95632031,13.5551406 7.63414844,12.7960117 C8.53094531,11.791457 9.78554687,11.2338789 11.1269844,11.2338789 C11.3631172,11.2338789 11.5966094,11.2516016 11.8260391,11.2855742 L11.8260391,11.9363867 L11.8260391,13.7468398 C11.6084922,13.6750859 11.376168,13.6356289 11.1342461,13.6356289 C9.90869141,13.6356289 8.9171875,14.6355117 8.93551953,15.8619805 C8.94714844,16.6467031 9.37579297,17.3326562 10.0080195,17.7107734 C10.3051406,17.8885078 10.6469492,17.9986016 11.0117109,18.0186094 C11.2975078,18.0343008 11.5719297,17.9944883 11.8260391,17.9105977 C12.7016602,17.6213477 13.3333281,16.7988945 13.3333281,15.8288711 L13.3362227,12.2007031 L13.3362227,5.57679688 L15.7603164,5.57679688 C15.7626523,5.81699219 15.7870273,6.05134766 15.8323242,6.27844141 C16.0152891,7.19763281 16.5334102,7.99510156 17.2545039,8.53876562 C17.8832773,9.01301172 18.6662227,9.29413672 19.5148281,9.29413672 C19.5153867,9.29413672 19.5223945,9.29413672 19.5218359,9.29357812 L19.5218359,9.94667578 L19.5218359,9.94667578 Z" id="path-2"></path>
        <filter x="-144.2%" y="-144.2%" width="388.5%" height="388.5%" filterUnits="objectBoundingBox" id="filter-3">
            <feOffset dx="0" dy="0" in="SourceAlpha" result="shadowOffsetOuter1"></feOffset>
            <feGaussianBlur stdDeviation="12.5" in="shadowOffsetOuter1" result="shadowBlurOuter1"></feGaussianBlur>
            <feColorMatrix values="0 0 0 0 5.73679768e-05   0 0 0 0 0.00814402248   0 0 0 0 0.097118433  0 0 0 0.0562172203 0" type="matrix" in="shadowBlurOuter1"></feColorMatrix>
        </filter>
        <path d="M13,0 C5.82141016,0 0,5.82141016 0,13 C0,20.1785898 5.82141016,26 13,26 C20.1785898,26 26,20.1785898 26,13 C26,5.82141016 20.1785898,0 13,0 Z M19.5218359,9.94667578 L19.5218359,11.7069062 C18.6918164,11.7072109 17.8853594,11.5445586 17.1247578,11.2236719 C16.6356836,11.0171953 16.1800234,10.7511523 15.7632617,10.4296563 L15.7757539,15.8476602 C15.7705234,17.0676797 15.2878477,18.2139648 14.4142578,19.0773984 C13.7033203,19.7802109 12.8024609,20.2271367 11.8260391,20.3718125 C11.5966094,20.4057852 11.3631172,20.4232031 11.1269844,20.4232031 C10.0817539,20.4232031 9.0894375,20.0845937 8.27769922,19.4598828 C8.12494922,19.3422734 7.97885156,19.2147617 7.83976172,19.0773984 C6.89299609,18.1416523 6.40478516,16.8734414 6.487,15.5392656 C6.54971484,14.5236914 6.95632031,13.5551406 7.63414844,12.7960117 C8.53094531,11.791457 9.78554687,11.2338789 11.1269844,11.2338789 C11.3631172,11.2338789 11.5966094,11.2516016 11.8260391,11.2855742 L11.8260391,11.9363867 L11.8260391,13.7468398 C11.6084922,13.6750859 11.376168,13.6356289 11.1342461,13.6356289 C9.90869141,13.6356289 8.9171875,14.6355117 8.93551953,15.8619805 C8.94714844,16.6467031 9.37579297,17.3326562 10.0080195,17.7107734 C10.3051406,17.8885078 10.6469492,17.9986016 11.0117109,18.0186094 C11.2975078,18.0343008 11.5719297,17.9944883 11.8260391,17.9105977 C12.7016602,17.6213477 13.3333281,16.7988945 13.3333281,15.8288711 L13.3362227,12.2007031 L13.3362227,5.57679688 L15.7603164,5.57679688 C15.7626523,5.81699219 15.7870273,6.05134766 15.8323242,6.27844141 C16.0152891,7.19763281 16.5334102,7.99510156 17.2545039,8.53876562 C17.8832773,9.01301172 18.6662227,9.29413672 19.5148281,9.29413672 C19.5153867,9.29413672 19.5223945,9.29413672 19.5218359,9.29357812 L19.5218359,9.94667578 L19.5218359,9.94667578 Z" id="path-4"></path>
        <filter x="-144.2%" y="-144.2%" width="388.5%" height="388.5%" filterUnits="objectBoundingBox" id="filter-5">
            <feOffset dx="0" dy="0" in="SourceAlpha" result="shadowOffsetOuter1"></feOffset>
            <feGaussianBlur stdDeviation="12.5" in="shadowOffsetOuter1" result="shadowBlurOuter1"></feGaussianBlur>
            <feColorMatrix values="0 0 0 0 5.73679768e-05   0 0 0 0 0.00814402248   0 0 0 0 0.097118433  0 0 0 0.0562172203 0" type="matrix" in="shadowBlurOuter1"></feColorMatrix>
        </filter>
        <path d="M13,0 C5.82141016,0 0,5.82141016 0,13 C0,20.1785898 5.82141016,26 13,26 C20.1785898,26 26,20.1785898 26,13 C26,5.82141016 20.1785898,0 13,0 Z M19.5218359,9.94667578 L19.5218359,11.7069062 C18.6918164,11.7072109 17.8853594,11.5445586 17.1247578,11.2236719 C16.6356836,11.0171953 16.1800234,10.7511523 15.7632617,10.4296563 L15.7757539,15.8476602 C15.7705234,17.0676797 15.2878477,18.2139648 14.4142578,19.0773984 C13.7033203,19.7802109 12.8024609,20.2271367 11.8260391,20.3718125 C11.5966094,20.4057852 11.3631172,20.4232031 11.1269844,20.4232031 C10.0817539,20.4232031 9.0894375,20.0845937 8.27769922,19.4598828 C8.12494922,19.3422734 7.97885156,19.2147617 7.83976172,19.0773984 C6.89299609,18.1416523 6.40478516,16.8734414 6.487,15.5392656 C6.54971484,14.5236914 6.95632031,13.5551406 7.63414844,12.7960117 C8.53094531,11.791457 9.78554687,11.2338789 11.1269844,11.2338789 C11.3631172,11.2338789 11.5966094,11.2516016 11.8260391,11.2855742 L11.8260391,11.9363867 L11.8260391,13.7468398 C11.6084922,13.6750859 11.376168,13.6356289 11.1342461,13.6356289 C9.90869141,13.6356289 8.9171875,14.6355117 8.93551953,15.8619805 C8.94714844,16.6467031 9.37579297,17.3326562 10.0080195,17.7107734 C10.3051406,17.8885078 10.6469492,17.9986016 11.0117109,18.0186094 C11.2975078,18.0343008 11.5719297,17.9944883 11.8260391,17.9105977 C12.7016602,17.6213477 13.3333281,16.7988945 13.3333281,15.8288711 L13.3362227,12.2007031 L13.3362227,5.57679688 L15.7603164,5.57679688 C15.7626523,5.81699219 15.7870273,6.05134766 15.8323242,6.27844141 C16.0152891,7.19763281 16.5334102,7.99510156 17.2545039,8.53876562 C17.8832773,9.01301172 18.6662227,9.29413672 19.5148281,9.29413672 C19.5153867,9.29413672 19.5223945,9.29413672 19.5218359,9.29357812 L19.5218359,9.94667578 L19.5218359,9.94667578 Z" id="path-6"></path>
        <filter x="-144.2%" y="-144.2%" width="388.5%" height="388.5%" filterUnits="objectBoundingBox" id="filter-7">
            <feOffset dx="0" dy="0" in="SourceAlpha" result="shadowOffsetOuter1"></feOffset>
            <feGaussianBlur stdDeviation="12.5" in="shadowOffsetOuter1" result="shadowBlurOuter1"></feGaussianBlur>
            <feColorMatrix values="0 0 0 0 5.73679768e-05   0 0 0 0 0.00814402248   0 0 0 0 0.097118433  0 0 0 0.0562172203 0" type="matrix" in="shadowBlurOuter1"></feColorMatrix>
        </filter>
    </defs>
    <g id="Page-1" stroke="none" stroke-width="1" fill="none" fill-rule="evenodd">
        <g id="Home" transform="translate(-150.000000, -723.000000)">
            <g id="Sidefod" transform="translate(0.000000, 730.000000)">
                <g id="Group-2" transform="translate(117.000000, 18.000000)">
                    <g id="SoMe" transform="translate(21.000000, 0.000000)">
                        <g id="Group-5" transform="translate(37.000000, 0.000000)">
                            <g id="Shape">
                                <use fill="black" fill-opacity="1" filter="url(#filter-3)" xlink:href="#path-2"></use>
                                <use fill="url(#linearGradient-1)" fill-rule="evenodd" xlink:href="#path-2"></use>
                            </g>
                            <g id="Shape">
                                <use fill="black" fill-opacity="1" filter="url(#filter-5)" xlink:href="#path-4"></use>
                                <use fill="url(#linearGradient-1)" fill-rule="evenodd" xlink:href="#path-4"></use>
                            </g>
                            <g id="Shape">
                                <use fill="black" fill-opacity="1" filter="url(#filter-7)" xlink:href="#path-6"></use>
                                <use fill="url(#linearGradient-1)" fill-rule="evenodd" xlink:href="#path-6"></use>
                            </g>
                        </g>
                    </g>
                </g>
            </g>
        </g>
    </g>
</svg>